<svg xmlns="http://www.w3.org/2000/svg" xmlns:xlink="http://www.w3.org/1999/xlink" version="1.1" width="344.143ptpx" height="341.546ptpx" viewBox="0 0 344.143 341.546" transform="rotate(0) scale(1, 1)">
<defs>
</defs>
<g id="layer_1">
<path transform="matrix(1,0,0,-1,178.9006,48.270479)" d="M0 0-19.505-52.548 46.015-235.761H98.015L9.253 0Z" fill="#800020"/>
<g clip-path="url(#clip_1)">
<path transform="matrix(1,0,0,-1,103.6353,245.81949)" d="M0 0C-1.417 11.259-4.206 18.619-4.206 18.619-4.544 20.567-5.033 22.514-4.944 24.488-4.796 27.805-3.054 30.804-1.927 33.927-.801 37.049-.405 40.887-2.588 43.388-4.922 46.062-9.433 46.444-10.745 49.741-13.912 57.703-22.541 53.387-22.541 53.387-24.107 53.017-25.736 52.411-27.279 52.871-30.36 53.791-30.613 57.417-33.646 58.484-35.467 59.125-37.979 59.15-39.689 58.255-41.399 57.359-43.24 56.356-45.145 56.665-46.818 56.937-48.241 58.14-49.933 58.039-54.355 57.773-58.139 54.213-59.199 49.912 2.959 42.653-5.458-9.884-6.154-13.708-6.834-15.819-7.151-17.154-7.151-17.154-10.434-25.999-15.732-31.868-28.307-31.868V-38.212H22.785V-31.868H13.003C5.563-31.868-.528-24.81 .981-17.471 .981-17.471 5.043 5.259 21.989 8.68 26.273 9.544 28.989 8.309 31.723 7.767 33.958 7.324 35.193 6.365 37.462 6.581 39.731 6.796 42.081 8.053 42.809 10.213 43.497 12.254 42.711 14.851 44.209 16.4 45.001 17.219 46.221 17.457 47.361 17.472 49.723 17.501 52.015 16.757 54.335 16.315 56.656 15.874 59.197 15.769 61.237 16.96 63.941 18.54 64.583 25.072 67.026 27.031 69.464 28.988 74.856 25.764 77.784 26.861 82.233 28.529 84.599 31.679 84.517 37.479 33.565 42.671 10.171 17.893 0 0" fill="#800020"/>
<path transform="matrix(1,0,0,-1,132.7363,203.91489)" d="M0 0C2.836 1.527 5.662 2.853 6.845 4.431 9.581 8.083 6.171 13.301 7.011 17.786 8.329 24.823 19.049 26.792 20.492 33.805 21.338 37.916 18.511 42.003 18.85 46.186 19.13 49.634 21.489 52.523 22.641 55.785 23.537 58.32 23.688 61.115 23.07 63.733 22.477 66.246 21.203 68.565 20.669 71.091 20.159 73.499 20.34 76 20.005 78.438 19.671 80.876 18.66 83.432 16.521 84.649L-25.953-20.61-24.796-23.719C-19.606-12.324-11.132-5.995 0 0" fill="#800020"/>
</g>
</g>
</svg>